<svg width="1069" height="90" viewBox="0 0 1069 90" fill="none" xmlns="http://www.w3.org/2000/svg">
<g filter="url(#filter0_i_4_2)">
<path d="M26.4375 15.5C23.3542 15.5 20.7292 16.5833 18.5625 18.75C16.3542 20.9583 15.25 23.5833 15.25 26.625V63.9375C15.25 67.0208 16.3542 69.6458 18.5625 71.8125C20.7292 74.0208 23.3542 75.125 26.4375 75.125H123.312C126.396 75.125 129.042 74.0208 131.25 71.8125C133.417 69.6458 134.5 67.0208 134.5 63.9375V26.625C134.5 23.5833 133.417 20.9583 131.25 18.75C129.042 16.5833 126.396 15.5 123.312 15.5H26.4375ZM26.4375 90C19.2708 90 13.125 87.4583 8 82.375C2.91667 77.25 0.375 71.1042 0.375 63.9375V26.625C0.375 19.4583 2.91667 13.3333 8 8.25C13.125 3.125 19.2708 0.5625 26.4375 0.5625H123.312C130.521 0.5625 136.667 3.125 141.75 8.25C146.875 13.3333 149.438 19.4583 149.438 26.625V63.9375C149.438 71.1042 146.875 77.25 141.75 82.375C136.667 87.4583 130.521 90 123.312 90H26.4375Z" fill="#F59B09"/>
<path d="M168.25 0.5625H291.188C298.396 0.5625 304.542 3.125 309.625 8.25C314.75 13.3333 317.312 19.4583 317.312 26.625C317.312 33.8333 314.75 39.9792 309.625 45.0625C304.542 50.1875 298.396 52.75 291.188 52.75H183.125V90H168.25V37.8125H291.188C294.271 37.8125 296.917 36.7292 299.125 34.5625C301.292 32.3542 302.375 29.7083 302.375 26.625C302.375 23.5833 301.292 20.9583 299.125 18.75C296.917 16.5833 294.271 15.5 291.188 15.5H168.25V0.5625Z" fill="#F59B09"/>
<path d="M336.125 0.5625H485.188V15.5H418.125V90H403.188V15.5H336.125V0.5625Z" fill="#F59B09"/>
<path d="M504 90V0.5625H518.875V90H504Z" fill="#F59B09"/>
<path d="M679.688 0.5625H694.125V90H679.188V20.9375L615.875 77.625L552.5 20.9375V90H537.625V0.5625H552.062L615.875 57.625L679.688 0.5625Z" fill="#F59B09"/>
<path d="M738.938 90C731.771 90 725.625 87.4583 720.5 82.375C715.417 77.25 712.875 71.1042 712.875 63.9375V0.5625H727.75V63.9375C727.75 67.0208 728.854 69.6458 731.062 71.8125C733.229 74.0208 735.854 75.125 738.938 75.125H835.812C838.896 75.125 841.542 74.0208 843.75 71.8125C845.917 69.6458 847 67.0208 847 63.9375V0.5625H861.938V63.9375C861.938 71.1042 859.375 77.25 854.25 82.375C849.167 87.4583 843.021 90 835.812 90H738.938Z" fill="#F59B09"/>
<path d="M880.75 90V0.5625H895.625V90H880.75Z" fill="#F59B09"/>
<path d="M1042.12 0.5625H1068.12L1004.25 45.3125L1068.12 90H1042.12L991.25 54.375L940.375 90H914.375L978.25 45.3125L914.375 0.5625H940.375L991.25 36.1875L1042.12 0.5625Z" fill="#F59B09"/>
</g>
<defs>
<filter id="filter0_i_4_2" x="0.375" y="0.5625" width="1067.75" height="93.4375" filterUnits="userSpaceOnUse" color-interpolation-filters="sRGB">
<feFlood flood-opacity="0" result="BackgroundImageFix"/>
<feBlend mode="normal" in="SourceGraphic" in2="BackgroundImageFix" result="shape"/>
<feColorMatrix in="SourceAlpha" type="matrix" values="0 0 0 0 0 0 0 0 0 0 0 0 0 0 0 0 0 0 127 0" result="hardAlpha"/>
<feOffset dy="4"/>
<feGaussianBlur stdDeviation="2"/>
<feComposite in2="hardAlpha" operator="arithmetic" k2="-1" k3="1"/>
<feColorMatrix type="matrix" values="0 0 0 0 0 0 0 0 0 0 0 0 0 0 0 0 0 0 0.5 0"/>
<feBlend mode="normal" in2="shape" result="effect1_innerShadow_4_2"/>
</filter>
</defs>
</svg>
